<?xml version="1.0" standalone="no"?><svg xmlns="http://www.w3.org/2000/svg" viewBox="0 0 1440 320"><path fill="#f1f5f9" fill-opacity="1" d="M0,0L26.7,5.3C53.3,11,107,21,160,64C213.3,107,267,181,320,202.7C373.3,224,427,192,480,170.7C533.3,149,587,139,640,154.7C693.3,171,747,213,800,197.3C853.3,181,907,107,960,74.7C1013.3,43,1067,53,1120,69.3C1173.3,85,1227,107,1280,138.7C1333.3,171,1387,213,1413,234.7L1440,256L1440,0L1413.3,0C1386.7,0,1333,0,1280,0C1226.7,0,1173,0,1120,0C1066.7,0,1013,0,960,0C906.7,0,853,0,800,0C746.7,0,693,0,640,0C586.7,0,533,0,480,0C426.7,0,373,0,320,0C266.7,0,213,0,160,0C106.7,0,53,0,27,0L0,0Z"></path></svg>