<!DOCTYPE svg PUBLIC "-//W3C//DTD SVG 1.1//EN" "http://www.w3.org/Graphics/SVG/1.1/DTD/svg11.dtd">
<!-- Uploaded to: SVG Repo, www.svgrepo.com, Transformed by: SVG Repo Mixer Tools -->
<svg fill="#9662c7" width="256px" height="256px" viewBox="-20.48 -20.48 296.96 296.96" id="Flat" xmlns="http://www.w3.org/2000/svg" stroke="#9662c7" transform="rotate(0)" stroke-width="1.28">
<g id="SVGRepo_bgCarrier" stroke-width="0" transform="translate(37.120000000000005,37.120000000000005), scale(0.71)">
<path transform="translate(-20.48, -20.48), scale(9.28)" d="M16,27.56606224924326C18.37994874654621,27.938895361279993,20.15004007865847,31.15542999311116,22.486558243865993,30.56904835179457C24.63455545050187,30.02997865983747,24.829966934275195,26.89621498976809,26.04549640869444,25.045005593367904C27.102771173880146,23.434812651873248,28.37870037449501,22.0266158238321,29.23017963403999,20.29874594779906C30.162273613821164,18.407288121619846,31.62780617258419,16.4746531401386,31.294992336621732,14.392431527064993C30.959618699685873,12.294194735726418,28.872270928504058,10.978190146762014,27.48338375669033,9.370065296867066C26.280508555311776,7.97731465310299,24.969031525581816,6.76296298226063,23.62238268232209,5.508690285139313C22.133342909007837,4.1217942565689505,21.04293424158191,2.0517277202965016,19.07407567994071,1.5376109973355145C17.11308450893949,1.0255486408856036,15.13820527896007,2.2225094323393497,13.191024584755102,2.7848096846540873C11.344353031529876,3.318085247323408,9.539414593446434,3.8667499477296214,7.847822577179123,4.779490382756055C6.010607684575472,5.770805253118455,3.754658245001187,6.5232031469003555,2.811252606770527,8.38547314224498C1.8618105520826158,10.259658942193894,3.1455693819625314,12.537376193167718,2.863104469402831,14.619256641491491C2.570669895878718,16.774617516287137,0.7800910360474741,18.686044965148984,1.1222542954705634,20.83407261494613C1.463012218839074,22.973277866021736,3.0513649048208675,24.770370898158493,4.703297821531487,26.171596328721257C6.292365514121193,27.5194973477143,8.2912470652455,28.413960354177465,10.359290984672363,28.669239879318887C12.281721942637356,28.906544927561036,14.086317530964603,27.266272519982905,16,27.56606224924326" fill="#ffb4f7" strokewidth="0"/>
</g>
<g id="SVGRepo_tracerCarrier" stroke-linecap="round" stroke-linejoin="round" stroke="#CCCCCC" stroke-width="0.512"/>
<g id="SVGRepo_iconCarrier"> <path d="M213.77051,181.53174c-.03906.041-.07324.085-.11328.12549l-32,32a8.00053,8.00053,0,0,1-11.31446-11.31446L188.68652,184H48a8,8,0,0,1,0-16H188.68652l-18.34375-18.34277a8.00053,8.00053,0,0,1,11.31446-11.31446l32,32c.03759.0376.06884.0791.10547.11719.1455.15088.28857.3042.42138.46631.0874.106.16406.21777.24512.32764.07373.09961.15137.19677.2207.30029.0835.12451.15625.25342.23194.38135.05712.09668.11767.19043.17089.28955.06885.12793.127.25976.18848.39062.04981.106.10254.21045.148.31934.05225.12646.09473.25537.14014.3833.04248.11865.08789.23486.12451.356.03906.1289.06787.25976.10058.39013.03077.12305.06543.24414.09034.36914.02978.15186.04834.30518.06982.458.01465.10547.03467.20947.04541.31641a8.02276,8.02276,0,0,1,0,1.584c-.01074.10694-.03076.21094-.04541.31641-.02148.15283-.04.30615-.06982.458-.02491.125-.05957.24609-.09034.36914-.03271.13037-.06152.26123-.10058.39013-.03662.1211-.082.23731-.12451.356-.04541.12793-.08789.25684-.14014.3833-.04541.10889-.09814.21338-.148.31934-.06152.13086-.11963.26269-.18848.39062-.05322.09912-.11377.19287-.17089.28955-.07569.12793-.14844.25684-.23194.38135-.06933.10352-.147.20068-.2207.30029-.08106.10987-.15772.22168-.24512.32764C214.05371,181.23291,213.91309,181.3833,213.77051,181.53174ZM41.5708,75.25391c-.07373.09961-.15137.19677-.2207.30029-.0835.12451-.15625.25342-.23194.38135-.05712.09668-.11767.19043-.17089.28955-.06885.12793-.127.25976-.18848.39062-.04981.106-.10254.21045-.14795.31934-.05225.12646-.09473.25537-.14014.3833-.04248.11865-.08789.23486-.12451.356-.03906.1289-.06787.25976-.10058.39013-.03077.12305-.06543.24414-.09034.36914-.02978.15186-.04834.30518-.06982.458-.01465.10547-.03467.20947-.04541.31641a8.02276,8.02276,0,0,0,0,1.584c.01074.10694.03076.21094.04541.31641.02148.15283.04.30615.06982.458.02491.125.05957.24609.09034.36914.03271.13037.06152.26123.10058.39013.03662.1211.082.23731.12451.356.04541.12793.08789.25684.14014.3833.04541.10889.09814.21338.14795.31934.06152.13086.11963.26269.18848.39062.05322.09912.11377.19287.17089.28955.07569.12793.14844.25684.23194.38135.06933.10352.147.20068.2207.30029.08106.10987.15772.22168.24512.32764.13037.15918.271.30957.41357.458.03906.041.07324.085.11328.12549l32,32a8.00053,8.00053,0,0,0,11.31446-11.31446L67.31348,88H208a8,8,0,0,0,0-16H67.31348L85.65723,53.65723A8.00053,8.00053,0,0,0,74.34277,42.34277l-32,32c-.03759.0376-.06884.0791-.10547.11719-.1455.15088-.28857.3042-.42138.46631C41.72852,75.03223,41.65186,75.144,41.5708,75.25391Z"/> </g>
</svg>